<svg width="320" height="96" viewBox="0 0 320 96" fill="none" xmlns="http://www.w3.org/2000/svg">
  <defs>
    <linearGradient id="rfGradient" x1="8" y1="8" x2="88" y2="88" gradientUnits="userSpaceOnUse">
      <stop stop-color="#0F4C3A"/>
      <stop offset="0.5" stop-color="#2F6F4E"/>
      <stop offset="1" stop-color="#D07A3C"/>
    </linearGradient>
    <radialGradient id="rfGlow" cx="0" cy="0" r="1" gradientUnits="userSpaceOnUse" gradientTransform="translate(70 22) rotate(130) scale(28 28)">
      <stop stop-color="#FFE1B8"/>
      <stop offset="1" stop-color="transparent"/>
    </radialGradient>
    <linearGradient id="rfText" x1="110" y1="28" x2="260" y2="80" gradientUnits="userSpaceOnUse">
      <stop stop-color="#1B5E3F"/>
      <stop offset="1" stop-color="#B8622C"/>
    </linearGradient>
  </defs>
  <rect width="96" height="96" rx="22" fill="url(#rfGradient)"/>
  <rect width="96" height="96" rx="22" fill="url(#rfGlow)"/>
  <path d="M12 64C24 52 42 46 60 46C72 46 82 50 88 56" stroke="#FFF6EA" stroke-width="6" stroke-linecap="round"/>
  <path d="M12 74C26 66 44 60 62 60C72 60 80 62 86 66" stroke="#FFF6EA" stroke-width="4" stroke-linecap="round" opacity="0.85"/>
  <path d="M44 20C34 24 30 34 30 44C40 44 52 38 56 28C52 24 48 22 44 20Z" fill="#FFF6EA"/>
  <circle cx="70" cy="24" r="9" fill="#FFE1B8"/>
  <path d="M62 30C64 26 68 24 72 24" stroke="#D07A3C" stroke-width="2" stroke-linecap="round"/>
  <text x="116" y="52" fill="url(#rfText)" font-family="Cormorant Garamond, Times New Roman, serif" font-size="34" font-weight="700">Rural Facil</text>
  <text x="116" y="74" fill="#6B5F55" font-family="Space Grotesk, Arial, sans-serif" font-size="12" font-weight="600" letter-spacing="2">AGRICULTURA LOCAL</text>
</svg>
